# xmcd
#
# Track frame offsets: 
#        150
#        12831
#        26304
#        40494
#        54474
#        67871
#        80444
#        93366
#        107122
#        121760
#        134475
#        145343
#        159186
#        171684
#        184187
#        196361
#        207969
#        219346
#        230954
#        244176
#        255888
#        267560
#        280597
#        292892
#
# Disc length: 4066 seconds
#
# Revision: 0
# Processed by: cddbd v1.5.2PL0 Copyright (c) Steve Scherf et al.
# Submitted via: ExactAudioCopyFreeDBPlugin 1.0
#
DISCID=590fe018
DTITLE=Various Artist - Alabama and the East Coast
DYEAR=1996
DGENRE=Blues
TTITLE0=Sonny Scott - Coal Mountain Blues
TTITLE1=Sonny Scott - Red Rooster Blues
TTITLE2=Sonny Scott - Red Cross Blues
TTITLE3=Sonny Scott - Black Horse Blues
TTITLE4=Sonny Scott - Fire Wood Man
TTITLE5=Sonny Scott - Naked Man Blues
TTITLE6=Sonny Scott - Highway No. 2 Blues
TTITLE7=Sonny Scott - Try Me Man Blues
TTITLE8=Sonny Scott - Hard Luck Man
TTITLE9=Sonny Scott - Red Cross Blues No. 2
TTITLE10=Charlie Campbell with His Red Peppers - Pepper Sauce Mama
TTITLE11=Charlie Campbell with His Red Peppers - Goin' Away Blues
TTITLE12=Peanut the Kidnapper - Silver Spade Blues
TTITLE13=Peanut the Kidnapper - Swagger Woman Blues
TTITLE14=Peanut the Kidnapper - Suicide Blues
TTITLE15=Peanut the Kidnapper - Eighth Avenue Blues
TTITLE16=Guitar Slim - Katie May -- Katie May
TTITLE17=Guitar Slim - Ain't It a Shame?
TTITLE18=Georgia Slim - Sweet Woman Blues
TTITLE19=Georgia Slim - Evil Hearted Woman
TTITLE20=Georgia Slim - Separatin' Blues
TTITLE21=Georgia Slim - I've Been Mistreated
TTITLE22=Georgia Slim - Ocean Wide Blues
TTITLE23=Georgia Slim - New Root Man Blues
EXTD=
EXTT0=
EXTT1=
EXTT2=
EXTT3=
EXTT4=
EXTT5=
EXTT6=
EXTT7=
EXTT8=
EXTT9=
EXTT10=
EXTT11=
EXTT12=
EXTT13=
EXTT14=
EXTT15=
EXTT16=
EXTT17=
EXTT18=
EXTT19=
EXTT20=
EXTT21=
EXTT22=
EXTT23=
PLAYORDER=
